<!DOCTYPE svg PUBLIC "-//W3C//DTD SVG 1.1//EN" "http://www.w3.org/Graphics/SVG/1.1/DTD/svg11.dtd">
<!-- Uploaded to: SVG Repo, www.svgrepo.com, Transformed by: SVG Repo Mixer Tools -->
<svg fill="#ffffff" height="800px" width="800px" version="1.1" id="Capa_1" xmlns="http://www.w3.org/2000/svg" xmlns:xlink="http://www.w3.org/1999/xlink" viewBox="0 0 232.333 232.333" xml:space="preserve">
<g id="SVGRepo_bgCarrier" stroke-width="0"/>
<g id="SVGRepo_tracerCarrier" stroke-linecap="round" stroke-linejoin="round"/>
<g id="SVGRepo_iconCarrier"> <g> <path d="M205.262,103.699c2.808-10.145,1.126-24.127-7.888-32.497c1.739-7.042,1.702-15.878-1.899-23.703 c-2.427-5.272-6.24-9.397-11.017-12.013c-0.166-4.677-1.302-10.208-4.609-15.684c-5.291-8.757-14.408-14.84-27.372-18.08 C147.025,0.358,135.241,0,135.241,0h-0.28c-21.872,0-47.307,8.831-73.643,25.869l-27.269,4.076 c-8.145,1.245-14.141,8.047-14.141,16.289v79.825c0,6.707,4.81,9.88,8.609,12.43c2.111,1.417,5.014,3.256,8.325,5.385 c9.237,5.937,24.717,15.874,29.947,20.943c6.534,6.338,12.574,17.456,18.955,29.227c4.106,7.572,8.358,15.402,13.263,23.025 c6.243,9.701,15.596,15.265,25.656,15.265c8.583,0,16.793-4.2,21.958-11.233c5.746-7.825,7.196-18.199,3.976-28.463 c-3.559-11.343-8.114-24.58-14.909-36.764c-0.079-0.143-0.154-0.296,0.008-0.57c0.166-0.285,0.334-0.303,0.496-0.303h48.991 c11.977,0,21.461-6.717,25.371-17.998C214.442,125.79,212.072,112.287,205.262,103.699z M185.185,143h-48.991 c-9.59,0-15.655,10.324-10.984,18.7c5.74,10.292,9.922,21.717,13.939,34.521c4.34,13.83-4.379,24.107-14.482,24.107 c-5.383,0-11.156-2.911-15.563-9.756c-12.673-19.692-21.597-42.319-34.024-54.373c-9.818-9.517-43.171-28.936-43.171-30.14V46.234 c0-2.254,1.728-4.17,3.956-4.511l28.829-4.403c0.643-0.099,1.282-0.339,1.826-0.696c25.968-17.054,49.343-24.956,68.432-24.957 c5.143,0,9.975,0.574,14.466,1.697c22.348,5.586,23.771,19.317,22.862,26.446c-0.294,2.303,1.166,4.409,3.408,5.007 c11.943,3.181,12.495,19.43,8.711,27.308c-1.057,2.201-0.041,4.788,2.109,5.943c8.914,4.793,9.573,18.796,6.054,25.368 c-1.007,1.882-0.501,4.233,1.175,5.554C203.506,116.688,204.036,143,185.185,143z"/> </g> </g>
</svg>